<svg width="52" height="52" viewBox="0 0 52 52" fill="none" xmlns="http://www.w3.org/2000/svg">
<path fill-rule="evenodd" clip-rule="evenodd" d="M50.6818 44.3177C52.4388 46.0747 52.4388 48.9248 50.6818 50.6818C49.8027 51.5608 48.6517 51.9997 47.4997 51.9997C46.3477 51.9997 45.1968 51.5608 44.3177 50.6818L25.9998 32.3638L7.68175 50.6818C6.80275 51.5608 5.65175 51.9997 4.49975 51.9997C3.34775 51.9997 2.19675 51.5608 1.31775 50.6818C-0.43925 48.9248 -0.43925 46.0747 1.31775 44.3177L19.6357 25.9998L1.31775 7.68175C-0.43925 5.92475 -0.43925 3.07475 1.31775 1.31775C3.07575 -0.43925 5.92375 -0.43925 7.68175 1.31775L25.9998 19.6357L44.3177 1.31775C46.0757 -0.43925 48.9238 -0.43925 50.6818 1.31775C52.4388 3.07475 52.4388 5.92475 50.6818 7.68175L32.3638 25.9998L50.6818 44.3177Z" fill="#E00000"/>
</svg>
