<svg width="184" height="46" viewBox="0 0 184 46" fill="none" xmlns="http://www.w3.org/2000/svg">
<path fill-rule="evenodd" clip-rule="evenodd" d="M23 0C35.7432 0 46 10.2568 46 23C46 35.7432 35.7432 46 23 46C10.2568 46 0 35.7432 0 23C0 10.2568 10.2568 0 23 0ZM23 22.0676H32.0135V27.6622C32.0135 32.6351 27.973 36.6757 23 36.6757C18.027 36.6757 13.9865 32.6351 13.9865 27.6622V18.3378C13.9865 13.3649 18.027 9.32432 23 9.32432C27.973 9.32432 32.0135 13.3649 32.0135 18.3378H28.2838C28.2838 15.2297 25.7973 13.0541 23 13.0541C20.2027 13.0541 17.7162 15.2297 17.7162 18.3378V27.6622C17.7162 30.4595 20.2027 32.9459 23 32.9459C25.7973 32.9459 28.2838 30.4595 28.2838 27.6622V25.7973H23V22.0676Z" fill="#66CC33"/>
<path fill-rule="evenodd" clip-rule="evenodd" d="M39.1623 0.932373C42.2704 0.932373 45.0677 3.41886 45.0677 6.83778C45.0677 9.94589 42.2704 12.4324 39.1623 12.4324C36.0542 12.4324 33.5677 9.94589 33.5677 6.83778C33.5677 3.41886 36.0542 0.932373 39.1623 0.932373Z" fill="#FFCC00"/>
<path d="M70.2432 22.0675H79.2567V27.6621C79.2567 32.635 75.2162 36.6756 70.2432 36.6756C65.2702 36.6756 61.2297 32.635 61.2297 27.6621V18.3377C61.2297 13.3648 65.2702 9.32422 70.2432 9.32422C75.2162 9.32422 79.2567 13.3648 79.2567 18.3377H75.527C75.527 15.2296 73.0405 13.0539 70.2432 13.0539C67.4459 13.0539 64.9594 15.2296 64.9594 18.3377V27.6621C64.9594 30.4594 67.4459 32.9458 70.2432 32.9458C73.0405 32.9458 75.527 30.4594 75.527 27.6621V25.7972H70.2432V22.0675ZM124.324 24.5539H118.73V28.2837H124.324V24.5539ZM181.824 32.9458H184V36.6756H181.824C178.405 36.6756 175.297 33.8783 175.297 30.1485C175.297 22.9999 175.297 16.1621 175.297 9.32422H179.027V16.4729H184V20.2026H179.027V30.1485C179.027 31.7026 180.27 32.9458 181.824 32.9458ZM157.581 23.9323H165.662V23.3107C165.662 21.135 163.486 20.2026 161.622 20.2026C160.068 20.2026 157.581 21.135 157.581 23.3107V23.9323ZM157.581 27.6621V29.8377C157.581 32.0134 160.068 32.9458 161.622 32.9458C163.486 32.9458 165.662 32.0134 165.662 29.8377H169.703C169.703 34.1891 165.662 36.6756 161.622 36.6756C157.892 36.6756 153.851 34.1891 153.851 29.8377V23.3107C153.851 18.9594 157.892 16.4729 161.622 16.4729C165.662 16.4729 169.703 18.9594 169.703 23.3107V27.6621H157.581ZM133.959 36.6756H130.23V9.32422H133.027L144.527 27.9729V9.32422H148.257V36.6756H145.149L133.959 18.0269V36.6756ZM113.135 32.9458H115V36.6756H113.135C109.405 36.6756 106.297 33.8783 106.297 30.1485C106.297 22.9999 106.297 16.1621 106.297 9.32422H110.027V16.4729H115V20.2026H110.027V30.1485C110.027 31.7026 111.581 32.9458 113.135 32.9458ZM88.8918 23.9323H96.9729V23.3107C96.9729 21.135 94.4864 20.2026 92.9324 20.2026C91.0675 20.2026 88.8918 21.135 88.8918 23.3107V23.9323ZM88.8918 27.6621V29.8377C88.8918 32.0134 91.0675 32.9458 92.9324 32.9458C94.4864 32.9458 96.9729 32.0134 96.9729 29.8377H100.703C100.703 34.1891 96.6621 36.6756 92.9324 36.6756C88.8918 36.6756 84.8513 34.1891 84.8513 29.8377V23.3107C84.8513 18.9594 88.8918 16.4729 92.9324 16.4729C96.6621 16.4729 100.703 18.9594 100.703 23.3107V27.6621H88.8918Z" fill="#2B2A29"/>
</svg>
