<svg width="38" height="22" viewBox="0 0 38 22" fill="none" xmlns="http://www.w3.org/2000/svg">
<path fill-rule="evenodd" clip-rule="evenodd" d="M37.1575 19.4042C37.1124 19.3064 37.0701 19.2251 37.0309 19.1601C36.3828 17.9879 35.1443 16.549 33.316 14.8434L33.2773 14.8043L33.258 14.7851L33.2384 14.7655H33.2188C32.389 13.971 31.8636 13.4372 31.6435 13.1636C31.241 12.6427 31.1508 12.1155 31.3709 11.5814C31.5263 11.1777 32.1102 10.3253 33.1214 9.02308C33.653 8.33291 34.0744 7.77962 34.3854 7.36298C36.6287 4.36809 37.6013 2.45412 37.3029 1.62083L37.1871 1.42593C37.1093 1.30871 36.9082 1.20155 36.5845 1.10374C36.2601 1.00593 35.8452 0.989872 35.3394 1.05484L29.738 1.09391C29.6473 1.06155 29.5177 1.06467 29.3489 1.10374C29.1804 1.14282 29.0958 1.16247 29.0958 1.16247L28.9985 1.21138L28.9211 1.27011C28.8564 1.30895 28.785 1.37727 28.7072 1.47484C28.6299 1.5724 28.5649 1.68651 28.5131 1.81669C27.9034 3.39216 27.2099 4.85713 26.432 6.2111C25.9521 7.01849 25.5114 7.71825 25.1092 8.31086C24.7072 8.90322 24.3701 9.33952 24.098 9.61928C23.8256 9.89928 23.5795 10.1237 23.3589 10.2931C23.1383 10.4626 22.97 10.5341 22.8533 10.5079C22.7365 10.4818 22.6265 10.4557 22.5224 10.4298C22.341 10.3126 22.1951 10.1531 22.0851 9.9513C21.9745 9.74945 21.9001 9.49534 21.8612 9.18945C21.8225 8.88332 21.7996 8.61986 21.7931 8.39836C21.7869 8.17709 21.7898 7.86449 21.8029 7.46079C21.8163 7.05709 21.8225 6.7838 21.8225 6.64045C21.8225 6.14565 21.832 5.60867 21.8514 5.02925C21.8709 4.44983 21.8869 3.99076 21.9001 3.65227C21.9132 3.31377 21.9194 2.95562 21.9194 2.57805C21.9194 2.20049 21.8967 1.90419 21.8514 1.68939C21.8065 1.4746 21.7382 1.26628 21.6475 1.06443C21.5565 0.862577 21.4236 0.706276 21.2488 0.595523C21.0739 0.485009 20.8564 0.39703 20.5974 0.331824C19.9101 0.175763 19.0349 0.0911396 17.9714 0.0779547C15.5599 0.0520643 14.0103 0.208366 13.323 0.546858C13.0507 0.689975 12.8043 0.885351 12.584 1.13275C12.3505 1.41922 12.318 1.57552 12.4866 1.60141C13.2646 1.7184 13.8155 1.9984 14.1397 2.44117L14.2564 2.67562C14.3474 2.84487 14.4381 3.14453 14.5288 3.57412C14.6195 4.0037 14.678 4.47908 14.7038 4.99976C14.7685 5.95028 14.7685 6.76415 14.7038 7.44113C14.6389 8.11836 14.5775 8.64575 14.519 9.02332C14.4606 9.40089 14.3732 9.70678 14.2564 9.94123C14.1397 10.1754 14.0619 10.3188 14.023 10.3708C13.9841 10.4228 13.9516 10.4554 13.9258 10.4684C13.7573 10.5334 13.5821 10.5662 13.4006 10.5662C13.219 10.5662 12.9986 10.4749 12.7394 10.2927C12.4801 10.1102 12.2111 9.85972 11.9323 9.54065C11.6534 9.22157 11.339 8.77568 10.9888 8.20274C10.6389 7.6298 10.2758 6.95281 9.89978 6.17154L9.58873 5.60507C9.39417 5.24045 9.12847 4.70994 8.7914 4.01329C8.45408 3.31665 8.15592 2.64278 7.89667 1.99169C7.79306 1.71816 7.63742 1.51008 7.42997 1.36672L7.33257 1.30799C7.26787 1.25597 7.16403 1.20083 7.02151 1.1421C6.87876 1.08336 6.7298 1.04117 6.57415 1.01504L1.24493 1.05412C0.700409 1.05412 0.330868 1.17782 0.13631 1.42521L0.0584868 1.54244C0.0195752 1.6074 0 1.71169 0 1.8548C0 1.99816 0.0389116 2.17388 0.116735 2.3822C0.894728 4.21826 1.74076 5.98911 2.65482 7.69476C3.56889 9.40041 4.36311 10.7743 5.03726 11.8154C5.71141 12.8573 6.39869 13.8404 7.09886 14.7648C7.79903 15.6891 8.26263 16.2817 8.48941 16.5421C8.71644 16.8029 8.89476 16.9978 9.02439 17.128L9.51066 17.5966C9.82196 17.9092 10.2789 18.2837 10.8819 18.7197C11.4849 19.156 12.1526 19.5856 12.8852 20.0092C13.6179 20.4321 14.4703 20.7771 15.4429 21.0439C16.4154 21.3112 17.362 21.4183 18.2825 21.3666H20.5193C20.9729 21.3272 21.3166 21.1839 21.5501 20.9367L21.6274 20.8389C21.6795 20.7613 21.7282 20.6404 21.7733 20.4779C21.8187 20.3151 21.8413 20.1358 21.8413 19.9409C21.8282 19.3812 21.8705 18.8765 21.9676 18.4273C22.0645 17.9783 22.1751 17.6398 22.2985 17.4118C22.4219 17.1841 22.5613 16.9918 22.7165 16.836C22.8721 16.6797 22.9827 16.5852 23.0476 16.5526C23.1123 16.5198 23.1639 16.4975 23.2028 16.4843C23.5141 16.38 23.8803 16.4809 24.3018 16.7871C24.7234 17.0932 25.1187 17.471 25.4885 17.92C25.8581 18.3695 26.3021 18.8739 26.8206 19.4337C27.3396 19.9934 27.7931 20.4098 28.182 20.6836L28.5709 20.918C28.8306 21.0743 29.1677 21.2177 29.5826 21.3479C29.997 21.478 30.3599 21.5106 30.6716 21.4454L35.6504 21.3675C36.1429 21.3675 36.5261 21.2855 36.798 21.123C37.0703 20.9605 37.232 20.7812 37.2842 20.586C37.3363 20.3909 37.3391 20.1694 37.294 19.9217C37.2482 19.6746 37.2028 19.502 37.1575 19.4042Z" fill="#6FBE44"/>
</svg>
