<svg width="30" height="30" viewBox="0 0 30 30" fill="none" xmlns="http://www.w3.org/2000/svg">
<path fill-rule="evenodd" clip-rule="evenodd" d="M0.375 9.78076V29.136H6.79327V9.78076H0.375Z" fill="#6FBE44"/>
<path fill-rule="evenodd" clip-rule="evenodd" d="M27.8522 11.5642C26.5041 10.0862 24.7209 9.34717 22.5039 9.34717C21.687 9.34717 20.9445 9.44809 20.2766 9.64994C19.6089 9.85179 19.045 10.1349 18.5845 10.4995C18.1243 10.8642 17.7579 11.2026 17.4857 11.515C17.2269 11.8118 16.9741 12.1572 16.7271 12.5482V9.79593H10.3281L10.3477 10.7335C10.3608 11.3587 10.3673 13.2856 10.3673 16.5147C10.3673 19.7441 10.3544 23.9561 10.3284 29.1514H16.7271V18.3505C16.7271 17.6865 16.7982 17.1594 16.9409 16.7684C17.2136 16.1041 17.6246 15.5477 18.1761 15.0987C18.7273 14.6492 19.4112 14.4246 20.2281 14.4246C21.3432 14.4246 22.1635 14.812 22.6886 15.5868C23.2136 16.3613 23.4762 17.4324 23.4762 18.7996V29.1509H29.8751V18.0578C29.8746 15.2061 29.2007 13.0416 27.8522 11.5642Z" fill="#6FBE44"/>
<path fill-rule="evenodd" clip-rule="evenodd" d="M3.61759 0.479492C2.54143 0.479492 1.66962 0.795451 1.00168 1.42689C0.333733 2.05833 0 2.85565 0 3.81935C0 4.76962 0.324184 5.56408 0.972551 6.20199C1.62068 6.8399 2.4765 7.15897 3.53976 7.15897H3.57867C4.66796 7.15897 5.54645 6.84014 6.21416 6.20199C6.88186 5.56408 7.20915 4.76986 7.19626 3.81935C7.18337 2.85565 6.8525 2.05833 6.20437 1.42689C5.55624 0.795211 4.69374 0.479492 3.61759 0.479492Z" fill="#6FBE44"/>
</svg>
