<svg width="34" height="34" viewBox="0 0 34 34" version="1.1" xmlns="http://www.w3.org/2000/svg" xmlns:xlink="http://www.w3.org/1999/xlink">
<g id="Canvas" transform="translate(-21445 -3964)">
<g id="Group">
<g id="Vector">
<use xlink:href="#path0_fill" transform="translate(21445 3964)" fill="#66CC33"/>
</g>
<g id="Vector">
<use xlink:href="#path1_fill" transform="translate(21469.6 3964.69)" fill="#FFCC00"/>
</g>
</g>
</g>
<defs>
<path id="path0_fill" fill-rule="evenodd" d="M 16.8562 0C 26.1954 0 33.7123 7.58108 33.7123 17C 33.7123 26.4189 26.1954 34 16.8562 34C 7.51694 34 0 26.4189 0 17C 0 7.58108 7.51694 0 16.8562 0ZM 16.8562 16.3108L 23.462 16.3108L 23.462 20.4459C 23.462 24.1216 20.5007 27.1081 16.8562 27.1081C 13.2116 27.1081 10.2504 24.1216 10.2504 20.4459L 10.2504 13.5541C 10.2504 9.87838 13.2116 6.89189 16.8562 6.89189C 20.5007 6.89189 23.462 9.87838 23.462 13.5541L 20.7285 13.5541C 20.7285 11.2568 18.9062 9.64865 16.8562 9.64865C 14.8061 9.64865 12.9838 11.2568 12.9838 13.5541L 12.9838 20.4459C 12.9838 22.5135 14.8061 24.3514 16.8562 24.3514C 18.9062 24.3514 20.7285 22.5135 20.7285 20.4459L 20.7285 19.0676L 16.8562 19.0676L 16.8562 16.3108Z"/>
<path id="path1_fill" fill-rule="evenodd" d="M 4.10015 0C 6.37801 0 8.42809 1.83784 8.42809 4.36486C 8.42809 6.66216 6.37801 8.5 4.10015 8.5C 1.82229 8.5 0 6.66216 0 4.36486C 0 1.83784 1.82229 0 4.10015 0Z"/>
</defs>
</svg>
