<svg width="19" height="11" viewBox="0 0 19 11" fill="none" xmlns="http://www.w3.org/2000/svg">
<path fill-rule="evenodd" clip-rule="evenodd" d="M1.62963 9.37038V2.43467L8.88454 7.82182C9.02876 7.92897 9.19946 7.98254 9.37037 7.98254C9.54107 7.98254 9.71178 7.92897 9.856 7.82182L17.1111 2.43467V9.37038H1.62963ZM15.4619 1.62963L9.37036 6.15287L3.2788 1.62963H15.4619ZM18.7389 0.797296C18.7383 0.766944 18.7338 0.736796 18.7299 0.706648C18.7267 0.683222 18.7251 0.659593 18.72 0.636778C18.7141 0.610907 18.7047 0.585852 18.6961 0.560389C18.6878 0.534722 18.6804 0.508852 18.6694 0.484204C18.6601 0.463222 18.6474 0.443259 18.636 0.422685C18.6212 0.396 18.6069 0.369111 18.5892 0.344259C18.5857 0.33937 18.5837 0.33387 18.58 0.328981C18.569 0.314111 18.5554 0.302704 18.5434 0.288648C18.5244 0.266648 18.5059 0.244444 18.4847 0.224278C18.4651 0.205741 18.4444 0.190056 18.4234 0.173759C18.4028 0.157667 18.3826 0.141778 18.3604 0.127722C18.3376 0.113259 18.3136 0.101241 18.2895 0.0892222C18.2665 0.0776111 18.2437 0.066 18.2195 0.0566296C18.194 0.0468519 18.1679 0.0397222 18.1414 0.0323889C18.117 0.0256667 18.0932 0.0187407 18.0679 0.0142593C18.038 0.00896296 18.008 0.00712963 17.9777 0.0052963C17.9601 0.00407407 17.9436 0 17.9259 0H0.814815C0.796889 0 0.779981 0.00407407 0.762259 0.0052963C0.732315 0.00733333 0.702574 0.00916667 0.673037 0.0142593C0.647574 0.0187407 0.623333 0.0258704 0.598889 0.0325926C0.572611 0.0399259 0.546741 0.0468519 0.521481 0.0566296C0.497037 0.066 0.474222 0.0776111 0.451204 0.0892222C0.426963 0.101444 0.40313 0.113259 0.380315 0.127722C0.358111 0.141778 0.337944 0.157667 0.31737 0.173759C0.296389 0.190056 0.275611 0.205741 0.256056 0.224278C0.23487 0.244444 0.216333 0.266648 0.197389 0.288648C0.185574 0.302704 0.171722 0.314111 0.160722 0.328981C0.157056 0.33387 0.155019 0.33937 0.151556 0.344259C0.133833 0.369111 0.119574 0.395796 0.104704 0.422685C0.0932963 0.443259 0.0806667 0.463222 0.0712963 0.484407C0.0605 0.508852 0.0531667 0.534722 0.0446111 0.560185C0.0362593 0.585648 0.0266852 0.610907 0.0207778 0.636778C0.0156852 0.659593 0.0140556 0.683222 0.011 0.706648C0.00692593 0.736796 0.00244444 0.766944 0.00183333 0.797296C0.00162963 0.803204 0 0.808704 0 0.814815V10.1852C0 10.6352 0.364833 11 0.814815 11H17.9259C18.3759 11 18.7407 10.6352 18.7407 10.1852V0.814815C18.7407 0.808704 18.7391 0.803204 18.7389 0.797296Z" fill="#A7ADB3"/>
</svg>
