<svg fill="none" height="25" viewBox="0 0 32 25" width="32" xmlns="http://www.w3.org/2000/svg"><path d="m19.7077 2.05078h-8.3913v15.08032h8.3913z" fill="#ff5f00"/><path d="m11.8529 9.59234c-.0015-1.45255.3275-2.88641.9621-4.193s1.5582-2.45166 2.7008-3.34849c-1.4148-1.111852-3.1138-1.803247-4.9029-1.9951649-1.78913-.1919171-3.59616.1233849-5.21455.9098729-1.6184.786492-2.98288 2.012432-3.9375 3.537712-.954613 1.52528-1.46085 3.28836-1.46085 5.08774 0 1.79939.506237 3.56249 1.46085 5.08779.95462 1.5252 2.3191 2.7512 3.9375 3.5377 1.61839.7865 3.42542 1.1018 5.21455.9098 1.7891-.1919 3.4881-.8833 4.9029-1.9951-1.1423-.8966-2.0657-2.0412-2.7002-3.3473-.6346-1.3061-.9638-2.7395-.9627-4.19156z" fill="#eb001b"/><path d="m31.0318 9.59248c0 1.79952-.5063 3.56272-1.4611 5.08802-.9548 1.5254-2.3195 2.7513-3.9381 3.5376-1.6186.7864-3.4258 1.1015-5.215.9093s-3.4883-.8839-4.903-1.9961c1.1419-.8973 2.065-2.0423 2.6997-3.3485.6348-1.3061.9646-2.7394.9646-4.19166 0-1.45223-.3298-2.88551-.9646-4.19168-.6347-1.30617-1.5578-2.45113-2.6997-3.34848 1.4147-1.112197 3.1138-1.803929 4.903-1.9961219 1.7892-.1921931 3.5964.1229069 5.215.9092829 1.6186.786379 2.9833 2.012299 3.9381 3.537629s1.4611 3.28853 1.4611 5.08804z" fill="#f79e1b"/><path d="m30.1147 15.5326v-.309h.1252v-.0639h-.317v.0639h.1358v.309zm.6153 0v-.3729h-.0959l-.1119.2664-.1119-.2664h-.0852v.3729h.0693v-.2797l.1039.2424h.0719l.1039-.2424v.2824z" fill="#f79e1b"/><path d="m4.78261 24.8665v-1.5983c.00931-.1345-.01012-.2693-.05702-.3956-.04689-.1264-.12016-.2412-.21494-.337-.09477-.0958-.20887-.1703-.33468-.2185-.12582-.0483-.26047-.0691-.39499-.0612-.17607-.0116-.35201.0244-.50945.104-.15744.0797-.29062.2002-.38562.3488-.08659-.1442-.2105-.2624-.35865-.3421s-.31506-.1179-.48314-.1107c-.14651-.0074-.29241.0236-.42324.0899-.13084.0664-.24206.1658-.32265.2884v-.3144h-.554089v2.5467h.559419v-1.4012c-.0119-.0871-.00441-.1757.02192-.2596.02634-.0839.07088-.1609.13043-.2255.05956-.0646.13266-.1153.21408-.1484.08142-.0332.16915-.0479.25692-.0431.36762 0 .55409.2397.55409.6713v1.4172h.55942v-1.4119c-.01141-.087-.00358-.1755.02293-.2591.02652-.0836.07108-.1604.13053-.225.05946-.0645.13235-.1152.21355-.1485.08119-.0333.1687-.0483.25634-.044.37828 0 .55942.2397.55942.6713v1.4172zm8.27669-2.5467h-.911v-.7725h-.5594v.7725h-.5062v.5062h.5168v1.1721c0 .5914.2291.943.8844.943.2449.0008.4849-.0675.6926-.1971l-.1598-.4742c-.1486.0886-.3172.1381-.4901.1438-.2664 0-.3677-.1705-.3677-.4262v-1.1614h.9058zm4.7258-.0639c-.1351-.004-.2688.0286-.3869.0942-.1182.0656-.2164.1619-.2844.2787v-.309h-.5488v2.5467h.5541v-1.4279c0-.4208.1812-.6553.5328-.6553.1185-.0016.2362.0201.3463.064l.1705-.5328c-.1265-.0453-.2599-.0687-.3943-.0693zm-7.1446.2664c-.3136-.1865-.67423-.279-1.0389-.2664-.64466 0-1.06556.309-1.06556.8151 0 .4156.30901.6713.87909.7512l.26639.0373c.30368.0427.44758.1226.44758.2664 0 .1972-.2025.309-.58078.309-.30427.0089-.60265-.085-.84712-.2663l-.26639.4315c.32277.2254.70935.3412 1.10286.3303.73523 0 1.16143-.3463 1.16143-.8311s-.3356-.682-.88972-.7619l-.26639-.0373c-.23975-.0319-.43155-.0799-.43155-.2504s.18115-.2983.48483-.2983c.28069.0032.55583.0784.79913.2184zm14.8406-.2664c-.1351-.004-.2688.0286-.3869.0942-.1182.0656-.2164.1619-.2844.2787v-.309h-.5488v2.5467h.5541v-1.4279c0-.4208.1812-.6553.5328-.6553.1185-.0016.2362.0201.3463.064l.1705-.5328c-.1265-.0453-.2599-.0687-.3943-.0693zm-7.1393 1.3319c-.0065.179.0243.3574.0906.5237.0663.1664.1666.3171.2945.4424.1279.1254.2805.2227.4481.2857.1677.063.3466.0903.5254.0802.3327.0169.6597-.0914.9164-.3037l-.2664-.4475c-.1915.146-.4251.2264-.6659.2291-.2049-.0166-.3959-.1097-.5352-.2607-.1394-.1511-.2167-.349-.2167-.5545s.0773-.4034.2167-.5545c.1393-.151.3303-.2441.5352-.2607.2408.0027.4744.0831.6659.2291l.2664-.4475c-.2567-.2123-.5837-.3206-.9164-.3037-.1788-.0101-.3577.0172-.5254.0802-.1676.063-.3202.1603-.4481.2857-.1279.1253-.2282.276-.2945.4424-.0663.1663-.0971.3447-.0906.5237zm5.1893 0v-1.268h-.5541v.309c-.0941-.1211-.2156-.218-.3546-.2829-.1389-.0648-.2913-.0957-.4445-.09-.3533 0-.6921.1403-.9419.3901s-.3901.5886-.3901.9418c0 .3533.1403.6921.3901.9419.2498.2497.5886.3901.9419.3901.1532.0056.3056-.0252.4445-.0901.139-.0648.2605-.1618.3546-.2829v.309h.5541zm-2.0618 0c.0088-.1499.0613-.2939.1509-.4144.0897-.1204.2127-.212.3537-.2635.1411-.0515.2941-.0606.4403-.0262s.2791.1109.3824.2199c.1033.1089.1724.2458.199.3936.0265.1478.0092.3001-.0498.4382-.0589.1381-.157.256-.2821.339-.1251.0831-.2717.1278-.4219.1286-.1055.0013-.2101-.0192-.3073-.0602-.0971-.0411-.1847-.1018-.2573-.1784s-.1285-.1673-.1643-.2665c-.0358-.0993-.0506-.2048-.0436-.3101zm-6.6864-1.3319c-.3533.0049-.6901.15-.9364.4033s-.3819.594-.3769.9473c.0049.3532.15.69.4033.9363s.594.3819.9473.377c.3832.0196.7601-.1038 1.0575-.3463l-.2663-.4103c-.2104.1687-.471.2625-.7406.2664-.1832.0158-.3652-.0405-.5075-.157-.1423-.1164-.2336-.2837-.2544-.4663h1.8914c0-.0693 0-.1386 0-.2131 0-.7992-.4955-1.332-1.2094-1.332zm0 .4955c.0829-.0018.1653.0128.2426.0429s.1479.0751.2077.1325c.0599.0574.1079.126.1412.202.0334.0759.0514.1577.0531.2406h-1.3319c.0096-.171.0859-.3314.2123-.447.1265-.1155.2931-.1769.4643-.171zm13.8815.8418v-2.2963h-.5327v1.3319c-.0941-.1211-.2157-.218-.3546-.2829-.139-.0648-.2914-.0957-.4446-.09-.3533 0-.692.1403-.9418.3901s-.3901.5886-.3901.9418c0 .3533.1403.6921.3901.9419.2498.2497.5885.3901.9418.3901.1532.0056.3056-.0252.4446-.0901.1389-.0648.2605-.1618.3546-.2829v.309h.5327zm.9244.903c.0347-.0004.069.0059.1013.0187.0305.0124.0585.0305.0825.0532.0234.023.0424.0501.056.08.0135.0311.0204.0646.0204.0985s-.0069.0675-.0204.0986c-.0136.0298-.0326.0569-.056.0799-.024.0227-.052.0408-.0825.0533-.0319.0141-.0664.0213-.1013.0213-.0505-.0004-.0998-.0151-.1423-.0425-.0424-.0273-.0762-.0662-.0974-.112-.0134-.0312-.0202-.0647-.0202-.0986s.0068-.0674.0202-.0985c.0135-.0299.0325-.057.0559-.08.024-.0227.052-.0408.0826-.0532.0347-.0138.0719-.0202.1092-.0187zm0 .4502c.0266.0002.0529-.0053.0773-.016.0229-.0102.0437-.0247.0612-.0426.0334-.0363.0519-.0839.0519-.1332s-.0185-.0968-.0519-.1332c-.0175-.018-.0383-.0324-.0612-.0426-.0244-.0106-.0507-.0161-.0773-.016-.0265.0002-.0528.0056-.0772.016-.024.0098-.0457.0243-.064.0426-.0333.0364-.0518.0839-.0518.1332s.0185.0969.0518.1332c.0183.0183.0401.0328.064.0426.0268.0116.056.0171.0852.016zm.016-.317c.0249-.0012.0494.0063.0693.0213.0081.0068.0146.0154.0187.0251.0042.0097.006.0203.0052.0309.0004.0088-.001.0176-.0042.0259-.0033.0083-.0081.0157-.0144.022-.0154.014-.0351.0225-.0559.024l.0772.0879h-.0613l-.0719-.0879h-.024v.0879h-.0506v-.2344zm-.0586.0453v.0639h.0586c.0104.0031.0215.0031.032 0 .0018-.0037.0028-.0078.0028-.012 0-.0041-.001-.0082-.0028-.0119.0018-.0038.0028-.0079.0028-.012 0-.0042-.001-.0083-.0028-.012-.0105-.0031-.0216-.0031-.032 0zm-2.9303-1.0815c.0088-.15.0613-.294.151-.4145.0897-.1204.2126-.212.3537-.2635.141-.0515.2941-.0605.4403-.0261.1461.0344.279.1108.3823.2198s.1725.2458.199.3936.0092.3001-.0497.4382c-.059.1382-.1571.256-.2821.3391-.1251.083-.2718.1277-.422.1285-.1054.0013-.21-.0192-.3072-.0602-.0972-.0411-.1848-.1018-.2574-.1784-.0725-.0765-.1284-.1673-.1642-.2665s-.0507-.2048-.0437-.31zm-18.70854 0v-1.2734h-.55409v.309c-.0941-.1211-.21564-.218-.35459-.2829-.13896-.0648-.29134-.0957-.44458-.09-.35325 0-.69204.1403-.94183.3901s-.39012.5886-.39012.9418c0 .3533.14033.6921.39012.9419.24979.2497.58858.3901.94183.3901.15324.0056.30562-.0252.44458-.0901.13895-.0648.26049-.1618.35459-.2829v.309h.55409zm-2.06186 0c.00884-.15.06132-.294.15099-.4145.08967-.1204.21261-.212.35367-.2635.14107-.0515.29412-.0605.44029-.0261s.27908.1108.38238.2198c.10329.109.17246.2458.19897.3936.02652.1478.00923.3001-.04973.4382-.05896.1382-.15703.256-.28212.3391-.12509.083-.27175.1277-.42191.1285-.10592.0021-.21112-.0179-.30892-.0586s-.18607-.1013-.25921-.178c-.07313-.0766-.12954-.1676-.16565-.2672-.0361-.0996-.05112-.2056-.04408-.3113z" fill="#231f20"/></svg>