<svg width="35" height="10" viewBox="0 0 35 10" fill="none" xmlns="http://www.w3.org/2000/svg"><path fill-rule="evenodd" clip-rule="evenodd" d="M31.0716 0H24.4287C24.7859 2.21429 26.9287 4.28571 29.2859 4.28571H34.5716C34.643 4.07143 34.643 3.78571 34.643 3.57143C34.643 1.57143 33.0716 0 31.0716 0Z" fill="url(#paint0_linear)"/><path fill-rule="evenodd" clip-rule="evenodd" d="M25 4.64258V9.99972H28.2143V7.14258H31.0714C32.6429 7.14258 34 6.07115 34.4286 4.64258H25Z" fill="#4DB45F"/><path fill-rule="evenodd" clip-rule="evenodd" d="M13.5703 0V10H16.4275C16.4275 10 17.1417 10 17.4989 9.28571C19.4275 5.42857 19.9989 4.28571 19.9989 4.28571H20.356V10H23.5703V0H20.7132C20.7132 0 19.9989 0.0714286 19.6417 0.714286C17.9989 4 17.1417 5.71429 17.1417 5.71429H16.7846V0H13.5703Z" fill="#4DB45F"/><path fill-rule="evenodd" clip-rule="evenodd" d="M0 10V0H3.21429C3.21429 0 4.14286 0 4.64286 1.42857C5.92857 5.21429 6.07143 5.71429 6.07143 5.71429C6.07143 5.71429 6.35714 4.78571 7.5 1.42857C8 0 8.92857 0 8.92857 0H12.1429V10H8.92857V4.64286H8.57143L6.78571 10H5.35714L3.57143 4.64286H3.21429V10H0Z" fill="#4DB45F"/><defs><linearGradient id="paint0_linear" x1="24.41" y1="2.143" x2="34.643" y2="2.143" gradientUnits="userSpaceOnUse"><stop stop-color="#00B4E6"/><stop offset="1" stop-color="#088CCB"/></linearGradient></defs></svg>