<svg width="16" height="16" viewBox="0 0 16 16" fill="none" xmlns="http://www.w3.org/2000/svg">
<path fill-rule="evenodd" clip-rule="evenodd" d="M10.653 10.6518C7.36159 13.9438 3.67124 14.8385 3.0419 14.5354L1.4305 12.6835C1.43104 12.6817 1.43157 12.6799 1.43228 12.6782L3.75177 10.8408L4.3756 11.7786C4.38787 11.7971 4.40102 11.815 4.41489 11.8321C4.62591 12.0929 4.93703 12.2469 5.29081 12.2653C5.6357 12.2838 6.68354 12.3386 9.51165 9.50994C10.211 8.81038 12.3394 6.68165 12.2663 5.2891C12.2477 4.93496 12.0939 4.62385 11.8333 4.41265C11.816 4.3986 11.7983 4.38562 11.7798 4.37336L10.8418 3.74917L12.679 1.42986C12.6809 1.42915 12.6829 1.42844 12.685 1.42773L14.5359 3.03948C14.839 3.66917 13.9446 7.35934 10.653 10.6518ZM15.5533 2.04193C15.5418 2.03037 15.5297 2.01917 15.5174 2.0085L13.6068 0.344666C13.3441 0.0947076 12.973 -0.0286714 12.5842 0.00564003C12.2376 0.0358626 11.9023 0.189997 11.6642 0.428222C11.645 0.4476 11.6269 0.467867 11.61 0.4892L9.73319 2.85847C9.24323 3.38505 9.25443 4.21244 9.76661 4.72533C9.80003 4.75876 9.83665 4.78862 9.87577 4.81476L10.8354 5.45352C10.7592 5.78614 10.2583 6.75149 8.50615 8.50422C6.75378 10.2569 5.78826 10.7579 5.45563 10.8344L4.81723 9.87472C4.79109 9.83543 4.76123 9.79881 4.7278 9.76556C4.21491 9.25284 3.38752 9.24164 2.86112 9.73196L0.492026 11.6086C0.470337 11.6258 0.449892 11.6442 0.430337 11.6637C-0.110647 12.2058 -0.145491 13.0879 0.348025 13.6063L2.01115 15.5173C2.02182 15.5297 2.03302 15.5418 2.04458 15.5534C2.37311 15.8819 2.86592 16.0001 3.40566 16.0001C4.38042 16.0001 5.50772 15.614 6.09368 15.3836C7.22632 14.9379 9.45532 13.8612 11.6585 11.6577C13.2914 10.0244 14.6145 8.04768 15.3837 6.09175C15.7418 5.18134 16.4753 2.96407 15.5533 2.04193Z" fill="#A7ADB3"/>
</svg>
