<svg width="13" height="15" viewBox="0 0 13 15" fill="none" xmlns="http://www.w3.org/2000/svg">
<path d="M7.46094 12.3145H4.18945V15H2.32422V12.3145H0.302734V10.7715H2.32422V9.43359H0.302734V7.90039H2.32422V0.78125H7.56836C9.0918 0.78125 10.2995 1.16862 11.1914 1.94336C12.0833 2.7181 12.5293 3.76628 12.5293 5.08789C12.5293 6.47461 12.0996 7.54557 11.2402 8.30078C10.3874 9.04948 9.17318 9.42708 7.59766 9.43359H4.18945V10.7715H7.46094V12.3145ZM4.18945 7.90039H7.56836C8.57747 7.90039 9.3457 7.66276 9.87305 7.1875C10.4004 6.71224 10.6641 6.01888 10.6641 5.10742C10.6641 4.2806 10.3906 3.61328 9.84375 3.10547C9.29688 2.59115 8.55794 2.33073 7.62695 2.32422H4.18945V7.90039Z" fill="#A7ADB3"/>
</svg>
