<svg enable-background="new 0 0 30 9.9" viewBox="0 0 30 9.9" xmlns="http://www.w3.org/2000/svg"><path d="m10.6 9.9h2.4l1.5-9.7h-2.4zm8.8-5.7c-.8-.5-1.4-.8-1.4-1.2s.4-.8 1.4-.8c.8 0 1.4.2 1.8.4l.2.1.3-2.1c-.4-.3-1.1-.5-2.1-.5-2.4 0-4.1 1.3-4.1 3.2 0 1.4 1.2 2.2 2.1 2.6.9.5 1.3.8 1.3 1.2 0 .6-.8.9-1.5.9-1 0-1.5-.2-2.3-.5l-.3-.2-.3 2.2c.6.3 1.6.5 2.7.5 2.5 0 4.2-1.3 4.2-3.3.1-1-.6-1.9-2-2.5zm8.6-4h-1.9c-.6 0-1 .2-1.3.8l-3.6 8.9h2.5s.4-1.2.5-1.5h3.1c.1.3.3 1.5.3 1.5h2.4zm-3 6.2c.2-.6 1-2.7 1-2.7s.2-.6.3-.9l.2.8s.5 2.3.6 2.8zm-16.5-6.2-2.4 6.6-.3-1.3s0 0 0-.1l-.8-4.3c-.1-.6-.6-.9-1.1-.9h-3.9v.2c1 .4 1.8.6 2.6 1.1l2.2 8.4h2.6l3.8-9.7h-2.7z" fill="#00579f"/></svg>