<svg width="13" height="16" viewBox="0 0 13 16" fill="none" xmlns="http://www.w3.org/2000/svg">
<path fill-rule="evenodd" clip-rule="evenodd" d="M3.11545 4.54546C3.11545 4.14383 3.44108 3.81819 3.84272 3.81819H8.63272C9.03436 3.81819 9.35999 4.14383 9.35999 4.54546C9.35999 4.9471 9.03436 5.27274 8.63272 5.27274H3.84272C3.44108 5.27274 3.11545 4.9471 3.11545 4.54546ZM3.11545 8.00003C3.11545 7.59839 3.44108 7.27276 3.84272 7.27276H8.63272C9.03436 7.27276 9.35999 7.59839 9.35999 8.00003C9.35999 8.40167 9.03436 8.7273 8.63272 8.7273H3.84272C3.44108 8.7273 3.11545 8.40167 3.11545 8.00003ZM3.00346 11.4545C3.00346 11.0529 3.3291 10.7272 3.73073 10.7272H8.63273C9.03437 10.7272 9.36001 11.0529 9.36001 11.4545C9.36001 11.8562 9.03437 12.1818 8.63273 12.1818H3.73073C3.3291 12.1818 3.00346 11.8562 3.00346 11.4545ZM1.45455 14.5455H10.9091V1.45457H1.45455V14.5455ZM11.6364 0H0.727273C0.325636 0 0 0.325636 0 0.727273V15.2727C0 15.6744 0.325636 16 0.727273 16H11.6364C12.038 16 12.3636 15.6744 12.3636 15.2727V0.727273C12.3636 0.325636 12.038 0 11.6364 0Z" fill="#A7ADB3"/>
</svg>
