<svg width="184" height="46" viewBox="0 0 184 46" fill="none" xmlns="http://www.w3.org/2000/svg">
<path fill-rule="evenodd" clip-rule="evenodd" d="M23 0C35.7432 0 46 10.2568 46 23C46 35.7432 35.7432 46 23 46C10.2568 46 0 35.7432 0 23C0 10.2568 10.2568 0 23 0ZM23 22.0676H32.0135V27.6622C32.0135 32.6351 27.973 36.6757 23 36.6757C18.027 36.6757 13.9865 32.6351 13.9865 27.6622V18.3378C13.9865 13.3649 18.027 9.32432 23 9.32432C27.973 9.32432 32.0135 13.3649 32.0135 18.3378H28.2838C28.2838 15.2297 25.7973 13.0541 23 13.0541C20.2027 13.0541 17.7162 15.2297 17.7162 18.3378V27.6622C17.7162 30.4595 20.2027 32.9459 23 32.9459C25.7973 32.9459 28.2838 30.4595 28.2838 27.6622V25.7973H23V22.0676Z" fill="#66CC33"/>
<path fill-rule="evenodd" clip-rule="evenodd" d="M39.161 0.932617C42.2691 0.932617 45.0664 3.4191 45.0664 6.83802C45.0664 9.94613 42.2691 12.4326 39.161 12.4326C36.0529 12.4326 33.5664 9.94613 33.5664 6.83802C33.5664 3.4191 36.0529 0.932617 39.161 0.932617Z" fill="#FFCC00"/>
<path d="M70.244 22.0675H79.2575V27.6621C79.2575 32.635 75.217 36.6756 70.244 36.6756C65.271 36.6756 61.2305 32.635 61.2305 27.6621V18.3377C61.2305 13.3648 65.271 9.32422 70.244 9.32422C75.217 9.32422 79.2575 13.3648 79.2575 18.3377H75.5278C75.5278 15.2296 73.0413 13.0539 70.244 13.0539C67.4467 13.0539 64.9602 15.2296 64.9602 18.3377V27.6621C64.9602 30.4594 67.4467 32.9458 70.244 32.9458C73.0413 32.9458 75.5278 30.4594 75.5278 27.6621V25.7972H70.244V22.0675ZM124.325 24.5539H118.73V28.2837H124.325V24.5539ZM181.825 32.9458H184.001V36.6756H181.825C178.406 36.6756 175.298 33.8783 175.298 30.1485C175.298 22.9999 175.298 16.1621 175.298 9.32422H179.028V16.4729H184.001V20.2026H179.028V30.1485C179.028 31.7026 180.271 32.9458 181.825 32.9458ZM157.582 23.9323H165.663V23.3107C165.663 21.135 163.487 20.2026 161.622 20.2026C160.068 20.2026 157.582 21.135 157.582 23.3107V23.9323ZM157.582 27.6621V29.8377C157.582 32.0134 160.068 32.9458 161.622 32.9458C163.487 32.9458 165.663 32.0134 165.663 29.8377H169.703C169.703 34.1891 165.663 36.6756 161.622 36.6756C157.893 36.6756 153.852 34.1891 153.852 29.8377V23.3107C153.852 18.9594 157.893 16.4729 161.622 16.4729C165.663 16.4729 169.703 18.9594 169.703 23.3107V27.6621H157.582ZM133.96 36.6756H130.23V9.32422H133.028L144.528 27.9729V9.32422H148.257V36.6756H145.149L133.96 18.0269V36.6756ZM113.136 32.9458H115.001V36.6756H113.136C109.406 36.6756 106.298 33.8783 106.298 30.1485C106.298 22.9999 106.298 16.1621 106.298 9.32422H110.028V16.4729H115.001V20.2026H110.028V30.1485C110.028 31.7026 111.582 32.9458 113.136 32.9458ZM88.8926 23.9323H96.9737V23.3107C96.9737 21.135 94.4872 20.2026 92.9332 20.2026C91.0683 20.2026 88.8926 21.135 88.8926 23.3107V23.9323ZM88.8926 27.6621V29.8377C88.8926 32.0134 91.0683 32.9458 92.9332 32.9458C94.4872 32.9458 96.9737 32.0134 96.9737 29.8377H100.703C100.703 34.1891 96.6629 36.6756 92.9332 36.6756C88.8926 36.6756 84.8521 34.1891 84.8521 29.8377V23.3107C84.8521 18.9594 88.8926 16.4729 92.9332 16.4729C96.6629 16.4729 100.703 18.9594 100.703 23.3107V27.6621H88.8926Z" fill="#2B2A29"/>
</svg>
