<svg width="30" height="30" viewBox="0 0 30 30" fill="none" xmlns="http://www.w3.org/2000/svg">
<path fill-rule="evenodd" clip-rule="evenodd" d="M24.981 7.49982V2.5001H22.4916V7.49982H17.5128V9.99992H22.4916V14.9999H24.981V9.99992H29.9598V24.3748C29.9598 25.9242 29.4119 27.2491 28.3162 28.3495C27.2209 29.4498 25.9015 30 24.3587 30H15.2564C15.7618 29.0495 16.0146 28.0273 16.0146 26.9337C16.0146 26.074 15.8719 25.2767 15.5871 24.5412C15.3018 23.8057 14.9418 23.1999 14.5076 22.7248C14.0731 22.2499 13.6064 21.7872 13.1072 21.3382C12.6081 20.8892 12.1414 20.5016 11.7069 20.1758C11.2727 19.8507 10.9127 19.4955 10.6276 19.1119C10.3424 18.7274 10.1999 18.34 10.1999 17.9495C10.1999 17.4806 10.3491 17.0378 10.6472 16.6211C10.9456 16.2047 11.3087 15.8044 11.7363 15.4201C12.1641 15.0358 12.5887 14.6161 13.0103 14.1601C13.4317 13.7046 13.7914 13.0991 14.0896 12.344C14.388 11.5888 14.5369 10.7359 14.5369 9.78513C14.5369 8.83461 14.3651 7.88746 14.0215 6.94342C13.678 5.99938 13.1884 5.22794 12.5532 4.62886C12.4753 4.55095 12.3846 4.47928 12.2808 4.41407C12.1772 4.3491 12.096 4.29996 12.0378 4.2676C11.9793 4.235 11.9146 4.17315 11.8432 4.08205C11.7718 3.99095 11.7038 3.8802 11.6391 3.75003H14.2648L16.8907 2.5001H8.39082C6.60136 2.5001 5.01625 2.75061 3.63549 3.25212C2.25472 3.75339 1.07138 4.62263 0.0859375 5.85938C0.0859375 4.21869 0.611125 2.83212 1.66126 1.69918C2.71164 0.566232 4.05349 0 5.6873 0H24.3587C25.9015 0 27.2209 0.55017 28.3162 1.65027C29.4119 2.75061 29.9598 4.07558 29.9598 5.62493V7.49982H24.981ZM3.95658 14.2675C4.37124 14.8081 4.87709 15.2475 5.47341 15.586C6.06974 15.9245 6.69853 16.0935 7.36003 16.0935C8.61785 16.0935 9.52858 15.6994 10.0927 14.9116C10.6568 14.1241 10.9387 13.0792 10.9387 11.777C10.9387 10.9825 10.8349 10.1495 10.6279 9.27737C10.4202 8.40501 10.1156 7.55878 9.71359 6.73844C9.31158 5.9181 8.76706 5.24087 8.07978 4.707C7.39274 4.17313 6.62119 3.90608 5.76537 3.90608C4.55959 3.90608 3.62261 4.35532 2.9549 5.25382C2.2872 6.15231 1.95323 7.22628 1.95323 8.47645C1.95323 9.08823 2.02771 9.73261 2.17691 10.4098C2.32611 11.0871 2.55624 11.7643 2.86753 12.4413C3.17859 13.1185 3.54168 13.7272 3.95658 14.2675ZM6.34871 18.8475C6.34871 18.5222 6.48478 17.962 6.75716 17.1678C6.26444 17.2327 5.81063 17.2656 5.39573 17.2656C3.19162 17.2656 1.42173 16.4973 0.0860874 14.9609V23.4179C2.04384 22.4019 4.53991 21.8489 7.57406 21.7576C6.75716 20.6896 6.34871 19.7199 6.34871 18.8475ZM12.9996 27.1188C12.9347 26.904 12.8213 26.6797 12.6592 26.445C12.4971 26.2108 12.361 26.0123 12.2507 25.8495C12.1407 25.6867 11.9688 25.4949 11.7353 25.2734C11.5021 25.0522 11.3238 24.8863 11.2006 24.7755C11.0774 24.6648 10.87 24.4989 10.5783 24.2774C10.2868 24.0561 10.0855 23.9063 9.97548 23.8284C9.86543 23.7502 9.65154 23.6004 9.3338 23.3791C9.01606 23.1576 8.8184 23.021 8.74058 22.9689C8.52024 22.943 8.2025 22.9299 7.7876 22.9299C7.07454 22.9299 6.38082 22.9752 5.70667 23.0665C5.03228 23.1576 4.33855 23.3137 3.62549 23.5352C2.91243 23.7567 2.26406 24.0786 1.68063 24.502C1.09719 24.9251 0.649828 25.4295 0.338536 26.0154C0.68874 27.2001 1.35979 28.1604 2.35167 28.8962C3.3438 29.6321 4.45553 29.9999 5.68733 29.9999H13.0781C13.2078 29.5703 13.2725 29.1076 13.2725 28.6133C13.2725 28.3398 13.2433 28.0761 13.1844 27.8222C13.1261 27.5683 13.0643 27.3336 12.9996 27.1188Z" fill="#6FBE44"/>
</svg>
