<svg width="31" height="26" viewBox="0 0 31 26" fill="none" xmlns="http://www.w3.org/2000/svg">
<path fill-rule="evenodd" clip-rule="evenodd" d="M30.6521 3.36622C29.4463 3.88715 28.24 4.21246 27.0347 4.34311C28.3962 3.52277 29.3169 2.36393 29.7967 0.866604C28.5516 1.60856 27.2226 2.11629 25.8094 2.38982C24.5644 1.06174 23.0347 0.397461 21.2192 0.397461C19.4818 0.397461 18.0006 1.0126 16.775 2.24311C15.5496 3.47362 14.937 4.96112 14.937 6.70584C14.937 7.17451 14.9888 7.65636 15.0927 8.15115C12.5252 8.02098 10.1168 7.37324 7.86707 6.20793C5.61736 5.04239 3.70806 3.48968 2.13918 1.54958C1.56864 2.52599 1.28337 3.58725 1.28337 4.73314C1.28337 5.81383 1.53617 6.8166 2.04202 7.74098C2.54764 8.66536 3.22847 9.41403 4.08429 9.98697C3.07282 9.9479 2.12629 9.68084 1.24469 9.18605V9.2642C1.24469 10.7877 1.72118 12.1253 2.67416 13.2779C3.62713 14.4305 4.82981 15.1562 6.28196 15.4556C5.73743 15.5987 5.18622 15.6704 4.62881 15.6704C4.26571 15.6704 3.87015 15.6378 3.44236 15.5731C3.84437 16.8359 4.58345 17.8742 5.65961 18.6881C6.73576 19.5022 7.95468 19.9217 9.31611 19.9481C7.03417 21.7446 4.43449 22.6431 1.51707 22.6431C0.959422 22.6431 0.45381 22.6174 0 22.5651C2.91742 24.453 6.13299 25.3968 9.64697 25.3968C11.8771 25.3968 13.9712 25.0422 15.9287 24.3326C17.8869 23.6231 19.5594 22.6725 20.9469 21.4809C22.3341 20.2897 23.5303 18.9192 24.5351 17.3696C25.5399 15.8202 26.2885 14.2025 26.7814 12.5163C27.2742 10.8298 27.5205 9.14074 27.5205 7.4478C27.5205 7.08317 27.5141 6.80989 27.501 6.62745C28.733 5.72944 29.7834 4.64205 30.6521 3.36622Z" fill="#6FBE44"/>
</svg>
