<svg width="31" height="30" viewBox="0 0 31 30" fill="none" xmlns="http://www.w3.org/2000/svg">
<path fill-rule="evenodd" clip-rule="evenodd" d="M28.5117 1.65027C27.4165 0.55017 26.0971 0 24.5542 0H5.88261C4.33975 0 3.02034 0.55017 1.92461 1.65027C0.829116 2.75061 0.28125 4.07558 0.28125 5.62493V24.3748C0.28125 25.9242 0.829116 27.2491 1.92461 28.3495C3.02034 29.4498 4.33975 30 5.88261 30H24.554C26.0968 30 27.4162 29.4498 28.5115 28.3495C29.6072 27.2491 30.1551 25.9242 30.1551 24.3748V5.62493C30.1551 4.07558 29.6072 2.75037 28.5117 1.65027ZM25.7016 15.4295H22.2979V27.8317H17.2022V15.4295H14.6543V11.152H17.2022V8.59344C17.2022 6.75738 17.6302 5.3708 18.4858 4.43324C19.3413 3.49567 20.7546 3.02701 22.7257 3.02701H26.1294V7.30443H23.9902C23.264 7.30443 22.8004 7.43125 22.5994 7.68536C22.3984 7.93923 22.2979 8.38512 22.2979 9.02327V11.152H26.149L25.7016 15.4295Z" fill="#6FBE44"/>
</svg>
