<svg width="18" height="16" viewBox="0 0 18 16" fill="none" xmlns="http://www.w3.org/2000/svg">
<path fill-rule="evenodd" clip-rule="evenodd" d="M1.87907 14.5116C2.69972 13.6431 4.6627 12.6759 6.30307 12.1042L8.07609 13.6121C8.35405 13.8485 8.76242 13.8485 9.04037 13.6121L10.8134 12.1042C12.4538 12.6759 14.4167 13.6431 15.2374 14.5116H1.87907ZM10.8774 10.5565C10.6326 10.478 10.3648 10.532 10.1691 10.6985L8.55814 12.0683L6.94735 10.6985C6.75163 10.532 6.48391 10.478 6.23907 10.5565C5.19721 10.8888 0 12.6775 0 15.2559C0 15.6669 0.333209 16.0001 0.744186 16.0001H16.3721C16.7831 16.0001 17.1163 15.6669 17.1163 15.2559C17.1163 12.6775 11.9191 10.8888 10.8774 10.5565ZM8.55814 1.48841C10.4997 1.48841 12.0793 3.07781 12.0793 5.03167C12.0793 6.9859 10.4997 8.57567 8.55814 8.57567C6.61674 8.57567 5.03721 6.9859 5.03721 5.03167C5.03721 3.07781 6.61674 1.48841 8.55814 1.48841ZM8.55813 10.064C11.3204 10.064 13.5676 7.80651 13.5676 5.03163C13.5676 2.25712 11.3204 0 8.55813 0C5.79608 0 3.54883 2.25712 3.54883 5.03163C3.54883 7.80651 5.79608 10.064 8.55813 10.064Z" fill="#A7ADB3"/>
</svg>
